<svg xmlns="http://www.w3.org/2000/svg" viewBox="0 0 220 420" width="220" height="420">
  <!-- No background -->

  <!-- Outer border frame -->
  <path d="M 20,18 L 200,18 A 10,10 0 0 1 210,28 L 210,170 M 210,220 L 210,370 A 10,10 0 0 1 200,380 L 110,400 L 20,380 A 10,10 0 0 1 10,370 L 10,220 M 10,170 L 10,28 A 10,10 0 0 1 20,18 Z" fill="none" stroke="#000000" stroke-width="3.5" stroke-linejoin="round"/>
  <!-- Inner border frame -->
  <path d="M 24,22 L 196,22 A 7,7 0 0 1 203,29 L 203,170 M 203,220 L 203,366 A 7,7 0 0 1 196,373 L 110,392 L 24,373 A 7,7 0 0 1 17,366 L 17,220 M 17,170 L 17,29 A 7,7 0 0 1 24,22 Z" fill="none" stroke="#000000" stroke-width="1.8" stroke-linejoin="round"/>

  <!-- Car silhouette - scaled & centered -->
  <g transform="translate(110, 115) scale(0.145) translate(-640, -450)">
    <path d="M 90,490 C 90,490 120,460 180,450 C 240,440 280,435 340,425 C 400,415 470,390 530,375 C 590,360 670,330 750,335 C 830,340 880,365 920,380 C 960,395 1070,410 1120,420 C 1170,430 1210,470 1200,500 C 1190,515 1160,545 1160,545 L 1145,525 C 1145,525 1170,500 1165,485 C 1160,470 1130,455 1090,445 C 1050,435 950,420 900,410 C 850,400 810,370 760,365 C 710,360 620,370 560,395 C 500,420 375,445 280,460 C 185,475 140,515 140,515 L 155,545 L 125,545 Z" fill="#000000"/>
    <path d="M 545,410 C 580,380 650,355 745,360 L 710,395 Z" fill="#000000"/>
  </g>

  <!-- Decorative lines -->
  <line x1="28" y1="148" x2="74" y2="148" stroke="#000000" stroke-width="1.2"/>
  <line x1="146" y1="148" x2="192" y2="148" stroke="#000000" stroke-width="1.2"/>

  <!-- Brand name - stacked vertical -->
  <text x="110" y="178" font-family="'Cinzel', 'Georgia', 'Times New Roman', serif" font-size="13" fill="#000000" font-weight="bold" text-anchor="middle" letter-spacing="3">LIMITLESS</text>
  <text x="110" y="196" font-family="'Cinzel', 'Georgia', 'Times New Roman', serif" font-size="13" fill="#000000" font-weight="bold" text-anchor="middle" letter-spacing="3">RENT CAR</text>

  <!-- Separator line -->
  <line x1="40" y1="208" x2="180" y2="208" stroke="#000000" stroke-width="0.8"/>

  <!-- Tagline -->
  <text x="110" y="226" font-family="'Courier New', monospace" font-size="7.5" fill="#000000" font-weight="bold" text-anchor="middle" letter-spacing="1">" Make the better move "</text>

  <!-- Stars -->
  <g fill="#000000" transform="translate(110, 248) translate(-33, 0)">
    <polygon points="6,0 7.8,5 13,5 8.8,8 10.4,13 6,10 1.6,13 3.2,8 -1,5 4.2,5" transform="translate(0,0)"/>
    <polygon points="6,0 7.8,5 13,5 8.8,8 10.4,13 6,10 1.6,13 3.2,8 -1,5 4.2,5" transform="translate(16,0)"/>
    <polygon points="6,0 7.8,5 13,5 8.8,8 10.4,13 6,10 1.6,13 3.2,8 -1,5 4.2,5" transform="translate(32,0)"/>
    <polygon points="6,0 7.8,5 13,5 8.8,8 10.4,13 6,10 1.6,13 3.2,8 -1,5 4.2,5" transform="translate(48,0)"/>
    <polygon points="6,0 7.8,5 13,5 8.8,8 10.4,13 6,10 1.6,13 3.2,8 -1,5 4.2,5" transform="translate(64,0)"/>
  </g>
</svg>
